<?xml version="1.0" encoding="UTF-8"?>
<svg version="1.1" xmlns="http://www.w3.org/2000/svg" width="307" height="353">
<path d="M0 0 C0.7721283 0.00054382 1.54425659 0.00108765 2.33978271 0.00164795 C21.23238842 0.0627511 37.38427329 3.68790201 55 10.375 C58.31457716 11.51098184 61.58518948 12.5869668 65 13.375 C65 14.365 65 15.355 65 16.375 C65.66644531 16.61089844 66.33289063 16.84679687 67.01953125 17.08984375 C70.79931121 18.71965713 74.19875265 20.76332321 77.6875 22.9375 C78.39213379 23.37570068 79.09676758 23.81390137 79.82275391 24.26538086 C85.1065391 27.63136116 89.6643717 31.30555508 94.1796875 35.66015625 C95.89846047 37.44414542 95.89846047 37.44414542 98 38.375 C98 39.035 98 39.695 98 40.375 C98.66 40.375 99.32 40.375 100 40.375 C102.54727876 42.83760468 104.73082064 45.6571616 107 48.375 C108.07894531 49.62410156 108.07894531 49.62410156 109.1796875 50.8984375 C114.8887237 57.63470513 119.68052668 64.67941103 124 72.375 C124.33918457 72.9740918 124.67836914 73.57318359 125.02783203 74.19042969 C142.5550665 105.65210398 145.76415906 144.05230962 136.4375 178.5625 C127.78679687 208.65956844 108.88215172 235.50093833 83.2734375 253.5625 C82.52320313 254.160625 81.77296875 254.75875 81 255.375 C81 256.035 81 256.695 81 257.375 C80.27039063 257.478125 79.54078125 257.58125 78.7890625 257.6875 C75.73513679 258.44028841 73.92139381 259.5548972 71.375 261.375 C67.32024066 264.25346397 63.877145 265.45229689 59 266.375 C59.33 267.365 59.66 268.355 60 269.375 C59.01 269.045 58.02 268.715 57 268.375 C55.02870724 268.73835196 55.02870724 268.73835196 52.9296875 269.484375 C52.12305664 269.74331543 51.31642578 270.00225586 50.48535156 270.26904297 C49.19322754 270.6927417 49.19322754 270.6927417 47.875 271.125 C38.66587417 274.03376481 29.54339224 275.9657426 20 277.375 C15.90099692 291.39094602 21.28348811 305.31328472 27.8125 317.58984375 C30.64726531 322.66078329 34.08719402 327.09035068 38 331.375 C38.86625 332.32375 39.7325 333.2725 40.625 334.25 C43.03378074 336.52790988 43.03378074 336.52790988 46.3125 338.4375 C47.199375 339.076875 48.08625 339.71625 49 340.375 C49 341.695 49 343.015 49 344.375 C43.48625491 344.75093717 43.48625491 344.75093717 41.2265625 343.00390625 C38.34531223 340.89604421 35.54089821 340.15049164 32.125 339.125 C18.40196658 334.72137749 8.0918474 328.47727819 -2.42578125 318.78417969 C-3.99894795 317.37594175 -5.62673861 316.06880245 -7.28125 314.7578125 C-9.83754232 312.51738388 -10.73215047 311.3983335 -12 308.375 C-13.26383855 306.39135936 -14.53555827 304.41273109 -15.8125 302.4375 C-20.71887989 294.65150656 -24.26782951 286.44527456 -26 277.375 C-26.95869995 277.09619995 -26.95869995 277.09619995 -27.93676758 276.81176758 C-50.18739681 270.30168807 -50.18739681 270.30168807 -58.109375 266.22265625 C-60.11091724 265.17044498 -60.11091724 265.17044498 -63 265.375 C-64.35986626 264.06873842 -65.6898287 262.73109982 -67 261.375 C-68.59715657 260.3111313 -70.2252459 259.292825 -71.875 258.3125 C-83.9501718 250.75546838 -94.16078215 241.61013273 -104 231.375 C-104.89589844 230.51648438 -105.79179688 229.65796875 -106.71484375 228.7734375 C-108.80720363 226.5773538 -109.76932219 225.07636332 -111 222.375 C-112.34476667 220.34789928 -113.70041349 218.32800367 -115.0625 216.3125 C-121.41412702 206.67819993 -126.30504356 196.1410231 -130.5703125 185.43359375 C-131.78626468 182.14274524 -131.78626468 182.14274524 -135 180.375 C-134.01 180.375 -133.02 180.375 -132 180.375 C-132 179.715 -132 179.055 -132 178.375 C-132.66 178.045 -133.32 177.715 -134 177.375 C-143.35234176 142.62845247 -138.62238482 101.65113045 -120.75756836 70.46533203 C-100.54587693 36.50759911 -69.8756935 12.77368762 -31.49267578 2.95605469 C-20.99402291 0.50876832 -10.73160271 -0.02845664 0 0 Z M62 13.375 C62.66 14.035 63.32 14.695 64 15.375 C64 14.715 64 14.055 64 13.375 C63.34 13.375 62.68 13.375 62 13.375 Z " fill="#D3A64A" transform="translate(152,4.625)"/>
<path d="M0 0 C10.33053689 8.13255032 17.60718546 18.61053898 24 30 C24.33918457 30.5990918 24.67836914 31.19818359 25.02783203 31.81542969 C42.5550665 63.27710398 45.76415906 101.67730962 36.4375 136.1875 C27.78679687 166.28456844 8.88215172 193.12593833 -16.7265625 211.1875 C-17.47679687 211.785625 -18.22703125 212.38375 -19 213 C-19 213.66 -19 214.32 -19 215 C-19.72960937 215.103125 -20.45921875 215.20625 -21.2109375 215.3125 C-24.26486321 216.06528841 -26.07860619 217.1798972 -28.625 219 C-32.67975934 221.87846397 -36.122855 223.07729689 -41 224 C-40.67 224.99 -40.34 225.98 -40 227 C-40.99 226.67 -41.98 226.34 -43 226 C-44.97129276 226.36335196 -44.97129276 226.36335196 -47.0703125 227.109375 C-47.87694336 227.36831543 -48.68357422 227.62725586 -49.51464844 227.89404297 C-50.80677246 228.3177417 -50.80677246 228.3177417 -52.125 228.75 C-61.33412583 231.65876481 -70.45660776 233.5907426 -80 235 C-84.09900308 249.01594602 -78.71651189 262.93828472 -72.1875 275.21484375 C-69.35273469 280.28578329 -65.91280598 284.71535068 -62 289 C-61.13375 289.94875 -60.2675 290.8975 -59.375 291.875 C-56.96621926 294.15290988 -56.96621926 294.15290988 -53.6875 296.0625 C-52.800625 296.701875 -51.91375 297.34125 -51 298 C-51 299.32 -51 300.64 -51 302 C-56.51374509 302.37593717 -56.51374509 302.37593717 -58.7734375 300.62890625 C-61.65468777 298.52104421 -64.45910179 297.77549164 -67.875 296.75 C-81.59803342 292.34637749 -91.9081526 286.10227819 -102.42578125 276.40917969 C-103.99894795 275.00094175 -105.62673861 273.69380245 -107.28125 272.3828125 C-109.83754232 270.14238388 -110.73215047 269.0233335 -112 266 C-113.26383855 264.01635936 -114.53555827 262.03773109 -115.8125 260.0625 C-120.68793508 252.32561325 -124.41785663 244.05985254 -126 235 C-127.98 234.34 -129.96 233.68 -132 233 C-132 232.67 -132 232.34 -132 232 C-129.69 232.33 -127.38 232.66 -125 233 C-125.0314209 232.39341553 -125.0628418 231.78683105 -125.09521484 231.16186523 C-126.7498596 193.93933975 -110.2726103 158.03192043 -89 128 C-83.94370588 131.56914879 -79.3736943 135.44324448 -74.875 139.6875 C-68.75491107 145.44167505 -62.29897238 150.62497927 -55.63818359 155.73486328 C-53.10896059 157.68813208 -50.61723679 159.68738331 -48.125 161.6875 C-46.92230469 162.65236328 -46.92230469 162.65236328 -45.6953125 163.63671875 C-45.13585937 164.08660156 -44.57640625 164.53648437 -44 165 C-44.7638285 161.68584558 -45.53736722 158.37402714 -46.3125 155.0625 C-46.52583984 154.13630859 -46.73917969 153.21011719 -46.95898438 152.25585938 C-47.96923663 147.9585177 -49.03331917 143.74791405 -50.48828125 139.578125 C-52.39678078 134.05261704 -53.6086963 128.38819362 -54.875 122.6875 C-56.35615132 116.10408463 -57.83742431 109.5276002 -59.53515625 102.99609375 C-59.77186035 102.08448486 -60.00856445 101.17287598 -60.25244141 100.23364258 C-60.69858789 98.53475621 -61.15231467 96.83783666 -61.61474609 95.14331055 C-62.60380856 91.36612203 -63.24353921 88.72010749 -62 85 C-61.00478423 83.36660914 -59.95602637 81.76541069 -58.875 80.1875 C-47.01678884 61.83031012 -40.07409635 40.19263188 -39.375 18.375 C-39.33632812 17.37082031 -39.29765625 16.36664063 -39.2578125 15.33203125 C-39.16471378 12.88818995 -39.07889087 10.44433404 -39 8 C-34.25040995 7.1399731 -29.49984182 6.28565074 -24.74829102 5.43652344 C-23.13310285 5.14706203 -21.51818946 4.85606291 -19.90356445 4.56347656 C-17.57834844 4.14240264 -15.25218982 3.72692781 -12.92578125 3.3125 C-12.20787918 3.18125732 -11.48997711 3.05001465 -10.75032043 2.91479492 C-7.1241726 2.27453126 -3.68379737 1.84925637 0 2 C0 1.34 0 0.68 0 0 Z " fill="#BF8934" transform="translate(252,47)"/>
<path d="M0 0 C0.49456026 13.63274378 0.07089286 25.93882881 -4 39 C-4.31348389 40.04099854 -4.31348389 40.04099854 -4.63330078 41.10302734 C-8.12782378 52.50799864 -12.74251691 66.84443031 -21.3984375 75.359375 C-23.25842435 78.42608502 -23.11734888 79.00156585 -22.4609375 82.39453125 C-21.98911966 84.26690674 -21.5003881 86.13505663 -21 88 C-20.46559089 90.33592855 -19.93734669 92.67327291 -19.4140625 95.01171875 C-18.82011578 97.57090842 -18.22419491 100.12954338 -17.625 102.6875 C-17.46871124 103.35629181 -17.31242249 104.02508362 -17.15139771 104.71414185 C-14.93342854 114.19336855 -12.5828163 123.61319747 -10 133 C-8.88302608 137.10080835 -7.78236426 141.20573914 -6.6875 145.3125 C-6.4083374 146.33529053 -6.1291748 147.35808105 -5.84155273 148.41186523 C-5.58833252 149.36520752 -5.3351123 150.3185498 -5.07421875 151.30078125 C-4.84307373 152.15841064 -4.61192871 153.01604004 -4.3737793 153.8996582 C-4 156 -4 156 -5 158 C-8.91813872 154.81951501 -12.83510718 151.6376049 -16.75 148.453125 C-19.20364922 146.45763506 -21.66020148 144.46607301 -24.125 142.484375 C-29.77520977 137.91821711 -35.19224387 133.16003501 -40.5390625 128.2421875 C-43.29174324 125.73418949 -46.10812552 123.34476309 -49 121 C-52.41121391 125.02930083 -55.10041145 129.26879479 -57.75 133.8125 C-58.18610596 134.55878662 -58.62221191 135.30507324 -59.0715332 136.07397461 C-63.39408796 143.55468264 -67.30293198 151.19399931 -71 159 C-71.45802002 159.94794434 -71.45802002 159.94794434 -71.92529297 160.91503906 C-78.65775641 174.94070502 -84.7297433 191.06599959 -85.31640625 206.73828125 C-85.35830078 207.80498047 -85.40019531 208.87167969 -85.44335938 209.97070312 C-85.48267578 211.07349609 -85.52199219 212.17628906 -85.5625 213.3125 C-85.62727539 214.99569336 -85.62727539 214.99569336 -85.69335938 216.71289062 C-85.79914787 219.47514569 -85.90123672 222.2374863 -86 225 C-97.77613253 224.01865562 -108.38364982 221.30817509 -119 216 C-119 215.01 -119 214.02 -119 213 C-119.66 213 -120.32 213 -121 213 C-130.4872358 173.12275682 -98.75000075 126.57437754 -79 94 C-79.95390625 94.06058594 -80.9078125 94.12117188 -81.890625 94.18359375 C-108.5559958 95.77512603 -135.29269191 96.21201454 -162 96 C-162 95.67 -162 95.34 -162 95 C-161.44989258 94.87061035 -160.89978516 94.7412207 -160.33300781 94.60791016 C-137.14886452 89.06635765 -114.94593427 80.99924882 -93.07421875 71.56640625 C-88.69968396 69.68560957 -84.28829792 67.95507421 -79.83203125 66.27734375 C-78.04466553 65.58209595 -78.04466553 65.58209595 -76.22119141 64.87280273 C-73.92103103 63.97921411 -71.60965308 63.11381666 -69.28662109 62.28149414 C-63.56930652 60.15297271 -63.56930652 60.15297271 -59.74145508 55.69335938 C-59.00493714 53.14210197 -58.50514552 50.60530008 -58 48 C-56.9538841 45.39572691 -55.66345676 42.95792579 -54.3125 40.5 C-53.96364746 39.85981934 -53.61479492 39.21963867 -53.25537109 38.56005859 C-42.39948527 19.16375429 -25.65564211 7.86218657 -5 1 C-1.37058824 0 -1.37058824 0 0 0 Z " fill="#FDFDFC" transform="translate(213,55)"/>
<path d="M0 0 C5.05629412 3.56914879 9.6263057 7.44324448 14.125 11.6875 C20.25291873 17.44903672 26.7175273 22.6336842 33.38818359 27.74804688 C36.55562066 30.20830396 39.63433058 32.7806409 42.71875 35.34375 C45.02631398 37.11710494 45.02631398 37.11710494 47.9765625 38.46875 C51.05080918 40.02573281 53.28052869 41.74537957 55.875 44 C61.68190959 48.8654624 67.82622984 53.09012523 74.09375 57.3359375 C79.15387692 60.7664059 84.08456251 64.3654922 89 68 C84.75838333 73.5746962 79.94853679 77.5380445 74.31958008 81.62255859 C72.84724354 82.70555386 71.41918272 83.84823005 70 85 C70 85.66 70 86.32 70 87 C69.27039063 87.103125 68.54078125 87.20625 67.7890625 87.3125 C64.73513679 88.06528841 62.92139381 89.1798972 60.375 91 C56.32024066 93.87846397 52.877145 95.07729689 48 96 C48.33 96.99 48.66 97.98 49 99 C47.515 98.505 47.515 98.505 46 98 C44.02870724 98.36335196 44.02870724 98.36335196 41.9296875 99.109375 C41.12305664 99.36831543 40.31642578 99.62725586 39.48535156 99.89404297 C38.62393555 100.17650879 37.76251953 100.45897461 36.875 100.75 C27.66587417 103.65876481 18.54339224 105.5907426 9 107 C4.90099692 121.01594602 10.28348811 134.93828472 16.8125 147.21484375 C19.64726531 152.28578329 23.08719402 156.71535068 27 161 C27.86625 161.94875 28.7325 162.8975 29.625 163.875 C32.03378074 166.15290988 32.03378074 166.15290988 35.3125 168.0625 C36.199375 168.701875 37.08625 169.34125 38 170 C38 171.32 38 172.64 38 174 C32.48625491 174.37593717 32.48625491 174.37593717 30.2265625 172.62890625 C27.34531223 170.52104421 24.54089821 169.77549164 21.125 168.75 C7.40196658 164.34637749 -2.9081526 158.10227819 -13.42578125 148.40917969 C-14.99894795 147.00094175 -16.62673861 145.69380245 -18.28125 144.3828125 C-20.83754232 142.14238388 -21.73215047 141.0233335 -23 138 C-24.26383855 136.01635936 -25.53555827 134.03773109 -26.8125 132.0625 C-31.68793508 124.32561325 -35.41785663 116.05985254 -37 107 C-38.98 106.34 -40.96 105.68 -43 105 C-43 104.67 -43 104.34 -43 104 C-40.69 104.33 -38.38 104.66 -36 105 C-36.0314209 104.39341553 -36.0628418 103.78683105 -36.09521484 103.16186523 C-37.7498596 65.93933975 -21.2726103 30.03192043 0 0 Z " fill="#C7963E" transform="translate(163,175)"/>
<path d="M0 0 C-2.77479215 1.84986143 -5.39888111 2.97382763 -8.49658203 4.15698242 C-17.80074432 7.73702169 -25.91628604 12.36820338 -34.21044922 17.85668945 C-36.01913813 19.01222699 -37.86027416 20.07164433 -39.734375 21.1171875 C-42.30771544 22.60085986 -44.42345633 23.97996979 -46.625 25.9375 C-47.15351562 26.40027344 -47.68203125 26.86304687 -48.2265625 27.33984375 C-50.53995584 29.50546527 -52.76272485 31.75595549 -55 34 C-55.76699219 34.7321875 -56.53398438 35.464375 -57.32421875 36.21875 C-73.6407519 51.96892414 -85.11952685 70.54229417 -91.26586914 92.40454102 C-91.74159241 94.0864213 -92.23486275 95.76347624 -92.7487793 97.43408203 C-94.85244776 104.53068139 -95.70296704 111.37976465 -96.1875 118.75 C-96.26935547 119.83410156 -96.35121094 120.91820312 -96.43554688 122.03515625 C-96.82305372 127.36907394 -97.09931212 132.65242407 -97 138 C-96.42636719 137.9278125 -95.85273437 137.855625 -95.26171875 137.78125 C-87.91874623 136.9789829 -80.66359804 136.93131387 -73.2878418 137.03710938 C-71.19197332 137.05909327 -69.09571009 137.03387006 -67 137 C-66.67 136.67 -66.34 136.34 -66 136 C-64.24529515 135.78673262 -62.48965667 135.57919366 -60.73071289 135.40429688 C-54.0848801 134.73978843 -48.38386135 133.74875858 -42.2578125 130.9453125 C-39.15460533 129.64604583 -36.01963776 129.06137874 -32.71484375 128.4921875 C-32.14894531 128.32976562 -31.58304687 128.16734375 -31 128 C-30.67 127.34 -30.34 126.68 -30 126 C-28 125.5 -28 125.5 -25 125 C-22.6608358 124.442479 -20.32368874 123.87774547 -17.98828125 123.3046875 C-16 123 -16 123 -14 124 C-21.90350374 127.60510697 -30.01706685 130.4398524 -38.25 133.1875 C-39.27931641 133.53232422 -40.30863281 133.87714844 -41.36914062 134.23242188 C-50.3694501 137.20537478 -58.49698802 139.27198451 -67.96875 139.6328125 C-68.88966431 139.67437469 -69.81057861 139.71593689 -70.75939941 139.75875854 C-73.67265849 139.88849319 -76.58624738 140.00692699 -79.5 140.125 C-81.48701192 140.21149041 -83.47399169 140.29872263 -85.4609375 140.38671875 C-90.30696222 140.59972459 -95.15331537 140.8026036 -100 141 C-100.37498209 99.04367049 -88.39274974 63.72929916 -59.09765625 33.1015625 C-46.07421575 19.85365029 -19.92577747 -1.17210456 0 0 Z " fill="#9B5F1F" transform="translate(114,11)"/>
<path d="M0 0 C10.33053689 8.13255032 17.60718546 18.61053898 24 30 C24.33918457 30.5990918 24.67836914 31.19818359 25.02783203 31.81542969 C42.5550665 63.27710398 45.76415906 101.67730962 36.4375 136.1875 C31.84461463 152.16682368 24.387389 166.34561601 15 180 C14.34 180.99 13.68 181.98 13 183 C12.01 182.67 11.02 182.34 10 182 C10.42410156 181.44054687 10.84820312 180.88109375 11.28515625 180.3046875 C16.44469329 173.25143027 20.27157151 165.86483091 24 158 C24.66 158 25.32 158 26 158 C26.1546875 156.9790625 26.1546875 156.9790625 26.3125 155.9375 C26.97935082 153.08822832 27.99540743 150.60500463 29.1796875 147.9375 C30.690588 144.36889692 31.84898677 140.69755546 33 137 C33.38865234 135.80117188 33.38865234 135.80117188 33.78515625 134.578125 C38.79572939 117.96014375 38.5122319 100.19283401 39 83 C38.34 83 37.68 83 37 83 C37.04125 81.88625 37.0825 80.7725 37.125 79.625 C37.125 73.06483278 36.01649474 66.83599391 33 61 C32.855625 60.21625 32.71125 59.4325 32.5625 58.625 C32.08784774 55.87636244 32.08784774 55.87636244 30.5625 53.125 C28.89963608 49.79927216 27.97655946 46.58071801 27 43 C26.62875 42.0925 26.2575 41.185 25.875 40.25 C25 38 25 38 25 35 C24.34 35 23.68 35 23 35 C22.70867187 34.3709375 22.41734375 33.741875 22.1171875 33.09375 C19.57817619 27.79216665 16.84906784 23.15704057 13.13671875 18.59375 C12 17 12 17 12 15 C11.34 15 10.68 15 10 15 C9.401875 14.0925 8.80375 13.185 8.1875 12.25 C6.05230482 9.07771001 3.98205348 7.31937493 1 5 C1 4.34 1 3.68 1 3 C0.02417969 3.22816406 -0.95164063 3.45632812 -1.95703125 3.69140625 C-3.86548828 4.12259766 -3.86548828 4.12259766 -5.8125 4.5625 C-7.70935547 4.99755859 -7.70935547 4.99755859 -9.64453125 5.44140625 C-13 6 -13 6 -16 5 C-12.59648662 2.96780512 -9.6767073 2.63108961 -5.75 2.375 C-4.67234375 2.30023438 -3.5946875 2.22546875 -2.484375 2.1484375 C-1.66453125 2.09945312 -0.8446875 2.05046875 0 2 C0 1.34 0 0.68 0 0 Z " fill="#A36722" transform="translate(252,47)"/>
<path d="M0 0 C1 2 1 2 0.07421875 4.79296875 C-0.38339844 5.91316406 -0.84101563 7.03335938 -1.3125 8.1875 C-3.47800899 13.62826636 -5.47194092 18.83164555 -6.4375 24.625 C-7 27 -7 27 -8.46875 29.2109375 C-10.29732489 32.54155605 -10.64458664 35.23472237 -11.0625 39 C-11.55512243 43.35384398 -12.17532312 47.00236767 -14 51 C-13.34 51 -12.68 51 -12 51 C-12.875 54.875 -12.875 54.875 -14 56 C-15.88746672 72.33384665 -9.36811251 87.28464248 -0.1015625 100.2578125 C1 102 1 102 1 104 C1.66 104 2.32 104 3 104 C4.5859375 105.64453125 4.5859375 105.64453125 6.375 107.8125 C8.23566282 110.06250857 9.86872703 111.90350285 12.2265625 113.63671875 C12.81179687 114.08660156 13.39703125 114.53648437 14 115 C14 115.66 14 116.32 14 117 C15.051875 117.37125 15.051875 117.37125 16.125 117.75 C19.37002459 119.16088026 22.10316737 120.97895398 25 123 C23.2578125 123.6796875 23.2578125 123.6796875 21 124 C18.9921875 122.8828125 18.9921875 122.8828125 16.875 121.125 C15.70324219 120.15820312 15.70324219 120.15820312 14.5078125 119.171875 C10.27890632 115.50945781 6.10802024 111.79757232 2 108 C0.6078125 106.7625 0.6078125 106.7625 -0.8125 105.5 C-3.88834415 101.98474954 -5.87609692 98.14129775 -8 94 C-8.50917969 93.05511719 -9.01835937 92.11023438 -9.54296875 91.13671875 C-12.19947439 86.07951913 -14.25624729 81.46457101 -15.5 75.875 C-16.06274582 73.21577749 -16.06274582 73.21577749 -17 71 C-20.00689577 69.15820897 -20.00689577 69.15820897 -23 69 C-23 68.67 -23 68.34 -23 68 C-20.69 68.33 -18.38 68.66 -16 69 C-16.0314209 68.39341553 -16.0628418 67.78683105 -16.09521484 67.16186523 C-17.13198253 43.83896684 -12.70252848 20.0323863 0 0 Z " fill="#AE742A" transform="translate(143,211)"/>
<path d="M0 0 C7.92 0 15.84 0 24 0 C24 0.33 24 0.66 24 1 C21.60429729 1.1687539 19.20846637 1.33506836 16.8125 1.5 C16.13896484 1.54769531 15.46542969 1.59539062 14.77148438 1.64453125 C11.86385529 1.84310104 8.98938776 1.99988665 6.07421875 1.96875 C4.00880125 1.7590739 4.00880125 1.7590739 3 3 C2.73239962 8.75977963 3.3383074 13.89644131 4.625 19.5 C4.88361816 20.65544312 4.88361816 20.65544312 5.14746094 21.83422852 C6.62104015 28.08034006 8.66313226 34.01622396 11.06884766 39.9609375 C12.22491198 42.82173205 13 44.87804783 13 48 C13.66 48.33 14.32 48.66 15 49 C15.8515625 51.06640625 15.8515625 51.06640625 16.625 53.5625 C16.88539062 54.38878906 17.14578125 55.21507812 17.4140625 56.06640625 C17.70410156 57.02353516 17.70410156 57.02353516 18 58 C18.66 58 19.32 58 20 58 C20.54269531 59.15757812 21.08539063 60.31515625 21.64453125 61.5078125 C23.89295173 65.99675388 26.6391884 69.8991112 29.6875 73.875 C30.20989258 74.56464844 30.73228516 75.25429687 31.27050781 75.96484375 C35.56936472 81.57775027 40.1233945 86.8771013 45 92 C42 92 42 92 39.9140625 90.20703125 C39.15867188 89.41683594 38.40328125 88.62664062 37.625 87.8125 C36.83222656 86.99007812 36.03945313 86.16765625 35.22265625 85.3203125 C34.48917969 84.55460937 33.75570312 83.78890625 33 83 C32.02404788 82.05915407 31.04568148 81.12078869 30.0625 80.1875 C28 78 28 78 27.125 76.2421875 C25.64485107 73.29216844 23.78560464 70.67217335 21.9375 67.9375 C15.58587298 58.30319993 10.69495644 47.7660231 6.4296875 37.05859375 C5.21373532 33.76774524 5.21373532 33.76774524 2 32 C2.99 32 3.98 32 5 32 C5 31.34 5 30.68 5 30 C4.34 29.67 3.68 29.34 3 29 C2.40234375 26.48828125 2.40234375 26.48828125 1.9375 23.3125 C1.78152344 22.27738281 1.62554688 21.24226563 1.46484375 20.17578125 C1.31144531 19.12777344 1.15804688 18.07976562 1 17 C0.81566406 16.10667969 0.63132812 15.21335938 0.44140625 14.29296875 C-0.19186822 9.5686291 0 4.76659435 0 0 Z " fill="#A56924" transform="translate(15,153)"/>
<path d="M0 0 C-1.33772119 3.54284314 -2.91028926 6.7637077 -4.80078125 10.04296875 C-5.35950928 11.02128662 -5.9182373 11.99960449 -6.49389648 13.00756836 C-7.09403564 14.0569458 -7.6941748 15.10632324 -8.3125 16.1875 C-17.91420974 33.18416041 -27.42796386 50.40491006 -33.99780273 68.83569336 C-35.81680066 73.90840033 -35.81680066 73.90840033 -38 75 C-38.72159424 76.64363134 -39.39351421 78.31050386 -40 80 C-41.2077558 76.37673261 -40.54311128 75.35853631 -39 72 C-38.34 72 -37.68 72 -37 72 C-36.67 69.36 -36.34 66.72 -36 64 C-35.34 64 -34.68 64 -34 64 C-33.67 61.69 -33.34 59.38 -33 57 C-32.34 57 -31.68 57 -31 57 C-30.505 54.03 -30.505 54.03 -30 51 C-29.34 51 -28.68 51 -28 51 C-27.9175 49.96875 -27.835 48.9375 -27.75 47.875 C-26.93434209 43.66076747 -25.49727949 41.4337593 -23 38 C-22.67 37.01 -22.34 36.02 -22 35 C-21.34 35 -20.68 35 -20 35 C-19.67 33.02 -19.34 31.04 -19 29 C-18.34 29 -17.68 29 -17 29 C-16.95875 28.21625 -16.9175 27.4325 -16.875 26.625 C-15.83212092 22.30450096 -13.9102463 19.27791097 -11.56640625 15.5390625 C-7.65465969 9.62403608 -7.65465969 9.62403608 -6 3 C-13.76782718 2.90055413 -21.29386151 3.02144273 -29 4 C-30.6663197 4.03400652 -32.33419981 4.05373549 -34 4 C-27.09404271 -2.90595729 -9.11702098 -0.17329079 0 0 Z " fill="#F4D961" transform="translate(134,149)"/>
<path d="M0 0 C-2.77479215 1.84986143 -5.39888111 2.97382763 -8.49658203 4.15698242 C-17.80074432 7.73702169 -25.91628604 12.36820338 -34.21044922 17.85668945 C-36.01913813 19.01222699 -37.86027416 20.07164433 -39.734375 21.1171875 C-42.30771544 22.60085986 -44.42345633 23.97996979 -46.625 25.9375 C-47.15351562 26.40027344 -47.68203125 26.86304687 -48.2265625 27.33984375 C-50.54036255 29.505846 -52.76728816 31.75057625 -55 34 C-59.33333333 38.33333333 -63.66666667 42.66666667 -68 47 C-68.66 46.34 -69.32 45.68 -70 45 C-61.02557622 34.94219441 -51.98655263 25.8399828 -41 18 C-40.12472656 17.36964844 -39.24945313 16.73929688 -38.34765625 16.08984375 C-28.36889465 9.33995724 -12.41615159 -0.73036186 0 0 Z " fill="#A76C25" transform="translate(114,11)"/>
<path d="M0 0 C-2.43828692 2.62337141 -5.1319183 4.57570115 -8.0625 6.625 C-22.15690973 16.8754798 -31.92960962 28.50787745 -38 45 C-38.185625 46.258125 -38.37125 47.51625 -38.5625 48.8125 C-40.70950796 53.57325679 -44.36944178 54.75092696 -48.95703125 56.93359375 C-51.89010337 57.9614868 -53.92797703 58.23281505 -57 58 C-57 57.34 -57 56.68 -57 56 C-56.01257813 55.60167969 -55.02515625 55.20335937 -54.0078125 54.79296875 C-52.71334182 54.25829608 -51.41908183 53.72311313 -50.125 53.1875 C-49.47402344 52.92646484 -48.82304687 52.66542969 -48.15234375 52.39648438 C-44.66862933 50.94194382 -43.14566941 50.21850411 -41 47 C-40.5141932 45.02438569 -40.03018063 43.04821891 -39.5703125 41.06640625 C-38.76868173 38.16186738 -37.44256305 35.63424556 -36 33 C-35.67 32.34 -35.34 31.68 -35 31 C-34.34 31 -33.68 31 -33 31 C-32.67 29.35 -32.34 27.7 -32 26 C-31.34 26 -30.68 26 -30 26 C-29.896875 25.443125 -29.79375 24.88625 -29.6875 24.3125 C-28.85101237 21.49885978 -27.71782737 19.37853021 -26 17 C-25.01 17 -24.02 17 -23 17 C-22.7525 16.4225 -22.505 15.845 -22.25 15.25 C-20.80606301 12.65091342 -19.26478013 10.92163162 -17 9 C-16.01 9 -15.02 9 -14 9 C-13.731875 8.401875 -13.46375 7.80375 -13.1875 7.1875 C-10.53098085 2.2939121 -5.68513279 -1.89504426 0 0 Z " fill="#F9DF62" transform="translate(193,61)"/>
<path d="M0 0 C1.28194244 0.00199402 1.28194244 0.00199402 2.58978271 0.00402832 C12.75053149 0.0403948 22.90560985 0.29829319 33.0625 0.5625 C34.99478598 0.61090461 36.92707765 0.65908262 38.859375 0.70703125 C43.51048602 0.82292458 48.1615106 0.94182846 52.8125 1.0625 C52.8125 1.3925 52.8125 1.7225 52.8125 2.0625 C46.74361238 2.34821987 40.674683 2.63302987 34.60571289 2.91699219 C32.54059694 3.0137463 30.47549269 3.11075021 28.41040039 3.20800781 C25.44420349 3.34766061 22.47796588 3.48641867 19.51171875 3.625 C18.5866301 3.66874756 17.66154144 3.71249512 16.7084198 3.75756836 C15.41742119 3.81763062 15.41742119 3.81763062 14.1003418 3.87890625 C13.34311325 3.91443604 12.5858847 3.94996582 11.80570984 3.98657227 C7.7066317 4.14271926 3.6169535 3.97469099 -0.48046875 3.84375 C-1.18649734 3.82155396 -1.89252594 3.79935791 -2.61994934 3.77648926 C-4.87164703 3.70559957 -7.12332346 3.63405803 -9.375 3.5625 C-10.90299344 3.51427994 -12.43098821 3.46610235 -13.95898438 3.41796875 C-17.70183865 3.29997172 -21.444674 3.18139014 -25.1875 3.0625 C-25.1875 2.4025 -25.1875 1.7425 -25.1875 1.0625 C-16.78499339 0.40532071 -8.42846063 -0.02448698 0 0 Z " fill="#CE9E3F" transform="translate(40.1875,149.9375)"/>
<path d="M0 0 C1 2 1 2 0.07421875 4.79296875 C-0.61220703 6.47326172 -0.61220703 6.47326172 -1.3125 8.1875 C-3.47800899 13.62826636 -5.47194092 18.83164555 -6.4375 24.625 C-7 27 -7 27 -8.46875 29.2109375 C-10.29732489 32.54155605 -10.64458664 35.23472237 -11.0625 39 C-11.55512243 43.35384398 -12.17532312 47.00236767 -14 51 C-13.34 51 -12.68 51 -12 51 C-12.875 54.875 -12.875 54.875 -14 56 C-14.07271741 58.35313555 -14.08370868 60.70833668 -14.0625 63.0625 C-14.05347656 64.35285156 -14.04445312 65.64320313 -14.03515625 66.97265625 C-14.02355469 67.97167969 -14.01195312 68.97070312 -14 70 C-14.66 70 -15.32 70 -16 70 C-17.20385277 45.59883039 -13.33209815 21.02524239 0 0 Z " fill="#965313" transform="translate(143,211)"/>
<path d="M0 0 C0.99 0 1.98 0 3 0 C2.32548651 3.82224311 1.30978066 7.3464013 0 11 C-0.24363281 11.69738281 -0.48726562 12.39476563 -0.73828125 13.11328125 C-3.83577358 21.4505844 -8.14646103 30.23220678 -13.76171875 37.1796875 C-15.85250414 40.25320798 -14.62716264 43.54750072 -14 47 C-13.80371859 48.4988762 -13.61582436 49.99888153 -13.4375 51.5 C-13.293125 52.655 -13.14875 53.81 -13 55 C-13.99 54.67 -14.98 54.34 -16 54 C-16.984375 51.41796875 -16.984375 51.41796875 -17.75 48.1875 C-18.01296875 47.12917969 -18.2759375 46.07085937 -18.546875 44.98046875 C-19.33036754 39.82697902 -17.75940164 37.39769164 -14.875 33.1875 C-8.18284307 22.8813035 -3.52415275 11.7544722 0 0 Z " fill="#DCAD3E" transform="translate(208,94)"/>
<path d="M0 0 C3.34239885 2.94917546 5.58710383 5.81592037 7.8125 9.6875 C12.7639549 18.22493125 18.717636 26.87450489 28 31 C28 32.32 28 33.64 28 35 C24.63295715 35.2295711 22.58629732 35.33943529 19.625 33.625 C19.08875 33.08875 18.5525 32.5525 18 32 C18 31.34 18 30.68 18 30 C16.68 29.67 15.36 29.34 14 29 C14.99 28.34 15.98 27.68 17 27 C16.34 26.38125 15.68 25.7625 15 25.125 C13 23 13 23 13 21 C12.34 21 11.68 21 11 21 C9.40792394 18.77822222 7.93934497 16.5676673 6.5 14.25 C5.89478516 13.29867188 5.89478516 13.29867188 5.27734375 12.328125 C0 3.96797649 0 3.96797649 0 0 Z " fill="#E7C25E" transform="translate(173,314)"/>
<path d="M0 0 C-7.90350374 3.60510697 -16.01706685 6.4398524 -24.25 9.1875 C-25.27931641 9.53232422 -26.30863281 9.87714844 -27.36914062 10.23242188 C-43.3431052 15.50888981 -43.3431052 15.50888981 -49 14.625 C-49.763125 14.51414063 -50.52625 14.40328125 -51.3125 14.2890625 C-52.1478125 14.14597656 -52.1478125 14.14597656 -53 14 C-52.67 13.34 -52.34 12.68 -52 12 C-49.50709762 11.6220148 -47.06986516 11.34634605 -44.5625 11.125 C-38.64886088 10.506991 -33.70475518 9.43798118 -28.2578125 6.9453125 C-25.15460533 5.64604583 -22.01963776 5.06137874 -18.71484375 4.4921875 C-18.14894531 4.32976562 -17.58304688 4.16734375 -17 4 C-16.67 3.34 -16.34 2.68 -16 2 C-14 1.5 -14 1.5 -11 1 C-8.6608358 0.442479 -6.32368874 -0.12225453 -3.98828125 -0.6953125 C-2 -1 -2 -1 0 0 Z " fill="#A86416" transform="translate(100,135)"/>
<path d="M0 0 C1.33382123 4.00146368 0.19442678 6.9443254 -0.875 10.875 C-1.24840692 12.28879584 -1.62082593 13.70285303 -1.9921875 15.1171875 C-2.16089355 15.74222168 -2.32959961 16.36725586 -2.50341797 17.01123047 C-3.54398163 21.17860095 -4.12282805 24.99640376 -4.09765625 29.30078125 C-4.09443359 30.27724609 -4.09121094 31.25371094 -4.08789062 32.25976562 C-4.07951172 33.26716797 -4.07113281 34.27457031 -4.0625 35.3125 C-4.05798828 36.33923828 -4.05347656 37.36597656 -4.04882812 38.42382812 C-4.03708184 40.94927882 -4.02065565 43.47460905 -4 46 C-3.34 46 -2.68 46 -2 46 C-2 46.66 -2 47.32 -2 48 C-4.25 48.25 -4.25 48.25 -7 48 C-9.1875 46.125 -9.1875 46.125 -11 44 C-11.66 43.34 -12.32 42.68 -13 42 C-12.34 41.34 -11.68 40.68 -11 40 C-8.875 40.375 -8.875 40.375 -7 41 C-7.00523682 40.35450195 -7.01047363 39.70900391 -7.01586914 39.04394531 C-7.03668657 36.11264015 -7.04967534 33.18135057 -7.0625 30.25 C-7.07087891 29.23421875 -7.07925781 28.2184375 -7.08789062 27.171875 C-7.09111328 26.1921875 -7.09433594 25.2125 -7.09765625 24.203125 C-7.10289307 23.30239258 -7.10812988 22.40166016 -7.11352539 21.47363281 C-7.00643628 19.14024174 -6.6552187 17.23259705 -6 15 C-5.649375 13.7625 -5.29875 12.525 -4.9375 11.25 C-4.628125 10.1775 -4.31875 9.105 -4 8 C-3.34 8 -2.68 8 -2 8 C-1.7834375 6.576875 -1.7834375 6.576875 -1.5625 5.125 C-1 2 -1 2 0 0 Z " fill="#E8C04D" transform="translate(96,222)"/>
<path d="M0 0 C0.99 0.33 1.98 0.66 3 1 C1.989375 1.77085937 0.97875 2.54171875 -0.0625 3.3359375 C-1.37525193 4.34863184 -2.6877383 5.3616705 -4 6.375 C-4.66773438 6.88289062 -5.33546875 7.39078125 -6.0234375 7.9140625 C-6.65507812 8.40390625 -7.28671875 8.89375 -7.9375 9.3984375 C-8.81728516 10.07398682 -8.81728516 10.07398682 -9.71484375 10.76318359 C-10.13894531 11.17133301 -10.56304687 11.57948242 -11 12 C-11 12.66 -11 13.32 -11 14 C-11.72960937 14.103125 -12.45921875 14.20625 -13.2109375 14.3125 C-16.26486321 15.06528841 -18.07860619 16.1798972 -20.625 18 C-24.67975934 20.87846397 -28.122855 22.07729689 -33 23 C-32.67 23.99 -32.34 24.98 -32 26 C-32.99 25.67 -33.98 25.34 -35 25 C-36.66821323 25.32550502 -38.33499557 25.65846063 -40 26 C-40.66 25.67 -41.32 25.34 -42 25 C-41.67 24.34 -41.34 23.68 -41 23 C-40.34 23.33 -39.68 23.66 -39 24 C-39 23.34 -39 22.68 -39 22 C-37.35 22.33 -35.7 22.66 -34 23 C-34 22.34 -34 21.68 -34 21 C-30.7237349 18.81582327 -27.80394734 17.95515728 -24.05859375 16.87890625 C-21.6542747 16.07444916 -21.6542747 16.07444916 -20 13 C-18.7625 12.5875 -17.525 12.175 -16.25 11.75 C-11.39488601 10.11095604 -8.94001258 7.06479011 -6 3 C-5.01 3.33 -4.02 3.66 -3 4 C-2.67 3.01 -2.34 2.02 -2 1 C-1.34 0.67 -0.68 0.34 0 0 Z " fill="#E4BE61" transform="translate(244,248)"/>
<path d="M0 0 C6.41095746 3.06979709 11.83500732 7.11998085 17.34106445 11.55883789 C22.50419634 15.6892057 27.87912998 19.42782472 33.35375977 23.13061523 C38.40036162 26.5541831 43.2683932 30.1489978 48 34 C42.48101094 34 37.48009775 30.4041953 33.5625 26.6875 C33.046875 26.130625 32.53125 25.57375 32 25 C31.34 25 30.68 25 30 25 C28.97418823 24.02649591 27.97855316 23.02099643 27 22 C25.70602431 20.95578553 24.39239829 19.93556186 23.0625 18.9375 C22.39347656 18.43089844 21.72445312 17.92429688 21.03515625 17.40234375 C19.04898694 15.95709863 19.04898694 15.95709863 16.88671875 14.98046875 C14.17879607 13.57324599 12.78637782 11.4243699 11 9 C9.68 9.33 8.36 9.66 7 10 C6.566875 9.195625 6.13375 8.39125 5.6875 7.5625 C4.19525998 4.72153646 4.19525998 4.72153646 1 4 C0.3125 1.9375 0.3125 1.9375 0 0 Z " fill="#F1D76F" transform="translate(202,208)"/>
<path d="M0 0 C0.66 1.32 1.32 2.64 2 4 C2.66 4 3.32 4 4 4 C4.54269531 5.15757812 5.08539063 6.31515625 5.64453125 7.5078125 C7.89295173 11.99675388 10.6391884 15.8991112 13.6875 19.875 C14.47108887 20.90947266 14.47108887 20.90947266 15.27050781 21.96484375 C19.56936472 27.57775027 24.1233945 32.8771013 29 38 C26 38 26 38 23.9140625 36.20703125 C23.15867187 35.41683594 22.40328125 34.62664062 21.625 33.8125 C20.83222656 32.99007812 20.03945313 32.16765625 19.22265625 31.3203125 C18.48917969 30.55460937 17.75570312 29.78890625 17 29 C16.02404788 28.05915407 15.04568148 27.12078869 14.0625 26.1875 C12 24 12 24 11.15234375 22.296875 C9.20049203 18.40640446 6.68223312 14.84340389 4.27734375 11.22070312 C2.10926339 7.90418415 0.31563772 4.76815805 -1 1 C-0.67 0.67 -0.34 0.34 0 0 Z " fill="#AE7329" transform="translate(31,207)"/>
<path d="M0 0 C0.33 0 0.66 0 1 0 C2.77736175 7.87726728 2.59901946 15.3397321 0 23 C-0.55127224 24.97651268 -1.09236194 26.95588446 -1.625 28.9375 C-2.01558594 30.37416016 -2.01558594 30.37416016 -2.4140625 31.83984375 C-2.70410156 32.90912109 -2.70410156 32.90912109 -3 34 C-5.17032186 30.5549166 -5.0288975 28.61221222 -4.1875 24.6875 C-2.98756981 18.48149161 -2.60378947 12.45179989 -2.34375 6.15234375 C-2 3 -2 3 0 0 Z " fill="#CE9B3D" transform="translate(215,59)"/>
<path d="M0 0 C-2.77511286 1.85007524 -5.40016344 2.97393106 -8.49780273 4.15820312 C-16.60122439 7.27344427 -23.79316142 11.03588108 -30.99682617 15.88671875 C-32.6314976 16.97580157 -34.31211737 17.99535863 -36 19 C-36.66 18.67 -37.32 18.34 -38 18 C-36.83108302 14.49324905 -36.33701546 14.33928553 -33.203125 12.6953125 C-32.41502441 12.27878418 -31.62692383 11.86225586 -30.81494141 11.43310547 C-29.96851074 11.00143066 -29.12208008 10.56975586 -28.25 10.125 C-27.39196777 9.68172363 -26.53393555 9.23844727 -25.64990234 8.78173828 C-7.58050063 -0.41348185 -7.58050063 -0.41348185 0 0 Z " fill="#BD8534" transform="translate(114,11)"/>
<path d="M0 0 C0.66 0 1.32 0 2 0 C2.12117187 0.72445312 2.24234375 1.44890625 2.3671875 2.1953125 C3.25173585 7.29847606 4.22550142 12.12012891 6 17 C7.44119458 21.66268836 8.40669598 26.15468385 9 31 C8.01 31.33 7.02 31.66 6 32 C5.01962818 27.77111177 4.04091311 23.5418418 3.0625 19.3125 C2.78470703 18.11431641 2.50691406 16.91613281 2.22070312 15.68164062 C1.95322266 14.52470703 1.68574219 13.36777344 1.41015625 12.17578125 C1.16402588 11.11270752 0.91789551 10.04963379 0.66430664 8.9543457 C0.33547485 7.49194458 0.33547485 7.49194458 0 6 C-0.21470947 5.06824951 -0.42941895 4.13649902 -0.65063477 3.17651367 C-0.76592529 2.45826416 -0.88121582 1.74001465 -1 1 C-0.67 0.67 -0.34 0.34 0 0 Z " fill="#DBAC40" transform="translate(194,150)"/>
<path d="M0 0 C0.66 0 1.32 0 2 0 C2 2.31 2 4.62 2 7 C2.65266846 6.92273682 3.30533691 6.84547363 3.9777832 6.76586914 C11.12399741 6.00681694 18.0202055 6.03752911 25.1875 6.4375 C26.23486328 6.48970703 27.28222656 6.54191406 28.36132812 6.59570312 C30.90798782 6.72361754 33.45406703 6.85847013 36 7 C36 7.33 36 7.66 36 8 C10.2954071 9.46137787 10.2954071 9.46137787 1 9 C0 8 0 8 -0.09765625 6.15234375 C-0.06510417 4.1015625 -0.03255208 2.05078125 0 0 Z " fill="#955112" transform="translate(15,142)"/>
<path d="M0 0 C-2.45565573 2.64267587 -5.17735405 4.61742956 -8.125 6.6875 C-13.40100216 10.47413804 -18.24383052 14.58439574 -23 19 C-23.33 18.34 -23.66 17.68 -24 17 C-22.90653119 15.65787938 -21.7998425 14.32652025 -20.6875 13 C-19.76517578 11.88625 -19.76517578 11.88625 -18.82421875 10.75 C-17 9 -17 9 -14 9 C-13.731875 8.401875 -13.46375 7.80375 -13.1875 7.1875 C-10.53098085 2.2939121 -5.68513279 -1.89504426 0 0 Z " fill="#F5D75A" transform="translate(193,61)"/>
<path d="M0 0 C5.23435005 4.27293882 9.67106815 8.81580806 14 14 C12.68 14.33 11.36 14.66 10 15 C9.443125 14.0925 8.88625 13.185 8.3125 12.25 C6.10622823 9.14929372 3.97108653 7.31084508 1 5 C1 4.34 1 3.68 1 3 C0.02417969 3.22816406 -0.95164063 3.45632812 -1.95703125 3.69140625 C-3.86548828 4.12259766 -3.86548828 4.12259766 -5.8125 4.5625 C-7.70935547 4.99755859 -7.70935547 4.99755859 -9.64453125 5.44140625 C-13 6 -13 6 -16 5 C-12.59648662 2.96780512 -9.6767073 2.63108961 -5.75 2.375 C-4.67234375 2.30023438 -3.5946875 2.22546875 -2.484375 2.1484375 C-1.66453125 2.09945312 -0.8446875 2.05046875 0 2 C0 1.34 0 0.68 0 0 Z " fill="#AE7226" transform="translate(252,47)"/>
<path d="M0 0 C9.39240634 3.51806161 17.72452197 10.20048783 25 17 C25 17.66 25 18.32 25 19 C25.66 19 26.32 19 27 19 C27 20.32 27 21.64 27 23 C26.01 23 25.02 23 24 23 C23.62101562 22.113125 23.24203125 21.22625 22.8515625 20.3125 C20.78022275 16.60681201 18.66869254 14.65538003 15.375 12 C14.8480957 11.57211182 14.32119141 11.14422363 13.77832031 10.70336914 C9.86082338 7.56498722 5.79953359 4.72027546 1.546875 2.05859375 C1.03640625 1.70925781 0.5259375 1.35992188 0 1 C0 0.67 0 0.34 0 0 Z " fill="#BC8533" transform="translate(225,26)"/>
<path d="M0 0 C1.21287852 3.63863555 0.69596182 4.35900424 -0.80078125 7.78125 C-1.20103516 8.70550781 -1.60128906 9.62976563 -2.01367188 10.58203125 C-2.44228516 11.54496094 -2.87089844 12.50789062 -3.3125 13.5 C-3.72951172 14.46292969 -4.14652344 15.42585937 -4.57617188 16.41796875 C-6.20777341 20.14957419 -7.73578744 23.60368116 -10 27 C-11.01559401 28.99212671 -12.01789629 30.9911515 -13 33 C-14.2077558 29.37673261 -13.54311128 28.35853631 -12 25 C-11.34 25 -10.68 25 -10 25 C-9.67 22.36 -9.34 19.72 -9 17 C-8.34 17 -7.68 17 -7 17 C-6.67 14.69 -6.34 12.38 -6 10 C-5.34 10 -4.68 10 -4 10 C-3.67 8.02 -3.34 6.04 -3 4 C-2.34 4 -1.68 4 -1 4 C-0.67 2.68 -0.34 1.36 0 0 Z " fill="#F0CE53" transform="translate(107,196)"/>
<path d="M0 0 C0.99 0 1.98 0 3 0 C2.32548651 3.82224311 1.30978066 7.3464013 0 11 C-0.45246094 12.27230469 -0.45246094 12.27230469 -0.9140625 13.5703125 C-1.25179687 14.47523437 -1.58953125 15.38015625 -1.9375 16.3125 C-2.25589844 17.17488281 -2.57429687 18.03726563 -2.90234375 18.92578125 C-4 21 -4 21 -7 22 C-6.23754579 17.18399177 -4.58720144 12.75384298 -2.9375 8.1875 C-2.65583984 7.39923828 -2.37417969 6.61097656 -2.08398438 5.79882812 C-1.39241462 3.86477711 -0.69662722 1.93223512 0 0 Z " fill="#D5A335" transform="translate(208,94)"/>
<path d="M0 0 C1.02538289 3.07614868 1.19967891 5.03099235 0.2578125 8.1484375 C-2.64038596 12.41472964 -8.28139308 14.34636754 -13 16 C-15.88671875 16.16015625 -15.88671875 16.16015625 -18 16 C-18 15.34 -18 14.68 -18 14 C-17.01257813 13.60167969 -16.02515625 13.20335938 -15.0078125 12.79296875 C-13.71334182 12.25829608 -12.41908183 11.72311313 -11.125 11.1875 C-10.47402344 10.92646484 -9.82304687 10.66542969 -9.15234375 10.39648438 C-4.55947823 8.47884465 -2.81634642 6.95016089 -0.875 2.3125 C-0.58625 1.549375 -0.2975 0.78625 0 0 Z " fill="#F3D55D" transform="translate(154,103)"/>
<path d="M0 0 C6.47285624 0.61064682 6.47285624 0.61064682 8.62890625 2.203125 C10.39800817 4.52160615 10.9274074 6.61263328 11.625 9.4375 C11.86476562 10.38496094 12.10453125 11.33242188 12.3515625 12.30859375 C12.56554687 13.19675781 12.77953125 14.08492188 13 15 C13.35191406 16.10021484 13.35191406 16.10021484 13.7109375 17.22265625 C13.80632812 17.80917969 13.90171875 18.39570313 14 19 C13.34 19.66 12.68 20.32 12 21 C11.18243762 18.93950145 10.37115266 16.87651147 9.5625 14.8125 C9.11003906 13.66394531 8.65757812 12.51539063 8.19140625 11.33203125 C7.18906699 8.52876767 6.47987205 5.92887424 6 3 C4.02 2.34 2.04 1.68 0 1 C0 0.67 0 0.34 0 0 Z " fill="#AF7A38" transform="translate(120,279)"/>
<path d="M0 0 C-0.33 0.66 -0.66 1.32 -1 2 C-3.97880524 2.19697084 -6.95764386 2.38277673 -9.9375 2.5625 C-11.18370117 2.64661133 -11.18370117 2.64661133 -12.45507812 2.73242188 C-18.11484061 3.06275821 -23.38081467 2.76547933 -29 2 C-25.96628717 0.26277175 -23.63687872 -0.29140602 -20.15625 -0.44921875 C-19.23972656 -0.49240234 -18.32320312 -0.53558594 -17.37890625 -0.58007812 C-15.95384766 -0.63325195 -15.95384766 -0.63325195 -14.5 -0.6875 C-13.54996094 -0.73455078 -12.59992188 -0.78160156 -11.62109375 -0.83007812 C-3.91500701 -1.16064865 -3.91500701 -1.16064865 0 0 Z " fill="#F2D56D" transform="translate(170,6)"/>
<path d="M0 0 C0.33 0 0.66 0 1 0 C1.33 3.96 1.66 7.92 2 12 C2.33 12 2.66 12 3 12 C3 13.65 3 15.3 3 17 C3.66 17 4.32 17 5 17 C5 17.66 5 18.32 5 19 C2.75 19.25 2.75 19.25 0 19 C-2.1875 17.125 -2.1875 17.125 -4 15 C-4.66 14.34 -5.32 13.68 -6 13 C-5.34 12.34 -4.68 11.68 -4 11 C-2.68 11.33 -1.36 11.66 0 12 C0 8.04 0 4.08 0 0 Z " fill="#E6BE5C" transform="translate(89,251)"/>
<path d="M0 0 C0.66 0 1.32 0 2 0 C2 7.92 2 15.84 2 24 C0.68 23.01 -0.64 22.02 -2 21 C-2.20703125 18.14453125 -2.20703125 18.14453125 -1.8125 14.8125 C-1.68617188 13.66007812 -1.55984375 12.50765625 -1.4296875 11.3203125 C-1.28789062 10.22460938 -1.14609375 9.12890625 -1 8 C-0.89945313 7.13117188 -0.79890625 6.26234375 -0.6953125 5.3671875 C-0.48341174 3.57566289 -0.2453097 1.78725642 0 0 Z " fill="#B88436" transform="translate(169,280)"/>
<path d="M0 0 C-17.51232394 7.53403756 -17.51232394 7.53403756 -21.4375 6.125 C-21.953125 5.75375 -22.46875 5.3825 -23 5 C-22.030625 4.87625 -21.06125 4.7525 -20.0625 4.625 C-19.051875 4.41875 -18.04125 4.2125 -17 4 C-16.67 3.34 -16.34 2.68 -16 2 C-14 1.5 -14 1.5 -11 1 C-8.6608358 0.442479 -6.32368874 -0.12225453 -3.98828125 -0.6953125 C-2 -1 -2 -1 0 0 Z " fill="#BD8124" transform="translate(100,135)"/>
<path d="M0 0 C0.66 0.66 1.32 1.32 2 2 C0.58480285 4.0343459 -0.54982123 4.90410393 -2.98046875 5.421875 C-4.98176954 5.66273952 -6.9909944 5.83532741 -9 6 C-8.67 6.99 -8.34 7.98 -8 9 C-8.99 8.67 -9.98 8.34 -11 8 C-12.66821323 8.32550502 -14.33499557 8.65846063 -16 9 C-16.66 8.67 -17.32 8.34 -18 8 C-17.67 7.34 -17.34 6.68 -17 6 C-16.34 6.33 -15.68 6.66 -15 7 C-15 6.34 -15 5.68 -15 5 C-13.35 5.33 -11.7 5.66 -10 6 C-10 5.34 -10 4.68 -10 4 C-6.71536341 1.81024227 -3.79303725 1.00193437 0 0 Z " fill="#EAC86A" transform="translate(220,265)"/>
<path d="M0 0 C7.92 0 15.84 0 24 0 C24 0.33 24 0.66 24 1 C21.60429729 1.1687539 19.20846637 1.33506836 16.8125 1.5 C16.13896484 1.54769531 15.46542969 1.59539062 14.77148438 1.64453125 C11.86385529 1.84310104 8.98938776 1.99988665 6.07421875 1.96875 C4.00880125 1.7590739 4.00880125 1.7590739 3 3 C2.76807135 4.51469448 2.58784762 6.03754562 2.4375 7.5625 C2.35371094 8.38878906 2.26992188 9.21507812 2.18359375 10.06640625 C2.12300781 10.70449219 2.06242187 11.34257812 2 12 C1.34 11.67 0.68 11.34 0 11 C0 7.37 0 3.74 0 0 Z " fill="#955615" transform="translate(15,153)"/>
<path d="M0 0 C4.8849568 4.310256 7.78706879 9.38175963 11 15 C11.9965896 16.66870817 12.99563359 18.33596097 14 20 C12 20 12 20 9.75 18.125 C4.94340217 13.11812726 1.03497635 6.89984232 0 0 Z " fill="#D6A94D" transform="translate(173,314)"/>
<path d="M0 0 C3.09892008 2.99303443 5.84782605 6.15603615 8.5625 9.5 C9.32691406 10.4384375 10.09132813 11.376875 10.87890625 12.34375 C12.62857492 14.53486362 14.33490145 16.74440324 16 19 C12.68997304 17.56246045 10.56110536 15.77516456 8.0625 13.1875 C7.3715625 12.47722656 6.680625 11.76695312 5.96875 11.03515625 C5.3190625 10.36355469 4.669375 9.69195312 4 9 C3.02284783 8.0396127 2.0440611 7.08088072 1.0625 6.125 C-1 4 -1 4 -2 2 C-1.34 2 -0.68 2 0 2 C0 1.34 0 0.68 0 0 Z " fill="#C28E3D" transform="translate(44,227)"/>
<path d="M0 0 C2.97 0 5.94 0 9 0 C8 2 8 2 5.9609375 2.88671875 C0.481929 4.58339057 -3.39461936 5.34041711 -9 4 C-5.5647952 1.70986347 -4.014669 1.82157027 0 2 C0 1.34 0 0.68 0 0 Z " fill="#DCAE50" transform="translate(195,273)"/>
<path d="M0 0 C0.33 0 0.66 0 1 0 C0.67 8.25 0.34 16.5 0 25 C-0.33 25 -0.66 25 -1 25 C-1.33 17.41 -1.66 9.82 -2 2 C-1.34 2 -0.68 2 0 2 C0 1.34 0 0.68 0 0 Z " fill="#E4B632" transform="translate(91,239)"/>
<path d="M0 0 C1 2 1 2 0.07421875 5.00390625 C-0.38339844 6.17824219 -0.84101563 7.35257813 -1.3125 8.5625 C-1.76238281 9.73941406 -2.21226562 10.91632813 -2.67578125 12.12890625 C-4 15 -4 15 -6 16 C-6.33 16.66 -6.66 17.32 -7 18 C-6.44380331 13.3110507 -5.11817327 9.80075733 -2.9375 5.625 C-2.38964844 4.56539062 -1.84179688 3.50578125 -1.27734375 2.4140625 C-0.85582031 1.61742187 -0.43429688 0.82078125 0 0 Z " fill="#97500E" transform="translate(143,211)"/>
<path d="M0 0 C3.97497544 3.40712181 5.86793788 7.32760855 8 12 C7.01 12 6.02 12 5 12 C3.61328125 10.390625 3.61328125 10.390625 2.3125 8.25 C1.87550781 7.55390625 1.43851563 6.8578125 0.98828125 6.140625 C0 4 0 4 0 0 Z " fill="#A5651F" transform="translate(133,298)"/>
<path d="M0 0 C1.76923828 0.01353516 1.76923828 0.01353516 3.57421875 0.02734375 C4.47785156 0.03894531 5.38148437 0.05054688 6.3125 0.0625 C3.45166622 1.65833925 1.13104827 2.38277451 -2.125 2.6875 C-3.29675781 2.79771484 -3.29675781 2.79771484 -4.4921875 2.91015625 C-6.89752745 3.07707486 -9.2772336 3.14025053 -11.6875 3.0625 C-8.16050276 -0.46449724 -4.75191609 -0.04704867 0 0 Z " fill="#ECC64F" transform="translate(111.6875,149.9375)"/>
<path d="M0 0 C0.66 0.33 1.32 0.66 2 1 C-3.445 5.455 -3.445 5.455 -9 10 C-9.66 9.34 -10.32 8.68 -11 8 C-7.37 5.36 -3.74 2.72 0 0 Z " fill="#AF7327" transform="translate(75,28)"/>
<path d="M0 0 C3.52238004 1.30066683 6.51494129 2.83740881 9.625 4.9375 C10.38039062 5.44152344 11.13578125 5.94554687 11.9140625 6.46484375 C13.80472861 7.85628903 15.39789629 9.29074923 17 11 C12.67787021 11 10.16497311 8.52725706 6.8125 6.0625 C6.15830078 5.59392578 5.50410156 5.12535156 4.83007812 4.64257812 C3.19724095 3.4592394 1.59561429 2.23307049 0 1 C0 0.67 0 0.34 0 0 Z " fill="#C3913E" transform="translate(225,26)"/>
<path d="M0 0 C0.99 0.33 1.98 0.66 3 1 C-0.3 3.64 -3.6 6.28 -7 9 C-7.66 8.67 -8.32 8.34 -9 8 C-7.68 6.35 -6.36 4.7 -5 3 C-4.34 3.33 -3.68 3.66 -3 4 C-2.67 3.01 -2.34 2.02 -2 1 C-1.34 0.67 -0.68 0.34 0 0 Z " fill="#DDB254" transform="translate(244,248)"/>
<path d="M0 0 C2 1 2 1 2.5625 2.625 C3.13601026 5.73834144 3.57769895 8.86290649 4 12 C3.01 12.33 2.02 12.66 1 13 C0.63779734 11.20994059 0.28547531 9.41787943 -0.0625 7.625 C-0.25972656 6.62726563 -0.45695313 5.62953125 -0.66015625 4.6015625 C-1 2 -1 2 0 0 Z " fill="#DCAE45" transform="translate(199,169)"/>
<path d="M0 0 C-2.6234008 2.91488977 -5.71816394 4.88503898 -9 7 C-9.66 6.67 -10.32 6.34 -11 6 C-9.90648447 2.82880497 -8.9873012 1.99216457 -6.0625 0.1875 C-3 -1 -3 -1 0 0 Z " fill="#ECC549" transform="translate(193,61)"/>
<path d="M0 0 C-2.35735884 2.72957339 -4.58133526 3.88893396 -8 5 C-8.99 5 -9.98 5 -11 5 C-10 2 -10 2 -8.3125 0.8125 C-5.45030907 -0.19313465 -3.01172092 -0.13689641 0 0 Z " fill="#E7BD42" transform="translate(139,118)"/>
<path d="M0 0 C-1 2 -1 2 -2.7421875 2.703125 C-3.44601563 2.88359375 -4.14984375 3.0640625 -4.875 3.25 C-5.57367188 3.44078125 -6.27234375 3.6315625 -6.9921875 3.828125 C-9 4 -9 4 -12 2 C-7.8794254 0.00214565 -4.54805635 -0.17835515 0 0 Z " fill="#B3751E" transform="translate(81,141)"/>
<path d="M0 0 C7.75 -0.125 7.75 -0.125 10 1 C10 1.99 10 2.98 10 4 C7.25 4.25 7.25 4.25 4 4 C1.625 2 1.625 2 0 0 Z " fill="#C9A75F" transform="translate(191,345)"/>
<path d="M0 0 C2.33524782 2.25740623 4.18705073 4.2805761 6 7 C5.67 7.99 5.34 8.98 5 10 C3.02 7.36 1.04 4.72 -1 2 C-0.67 1.34 -0.34 0.68 0 0 Z " fill="#B77E2F" transform="translate(38,219)"/>
<path d="M0 0 C8.57142857 -0.28571429 8.57142857 -0.28571429 12 2 C11.67 2.66 11.34 3.32 11 4 C7.37 3.34 3.74 2.68 0 2 C0 1.34 0 0.68 0 0 Z " fill="#E8C464" transform="translate(178,8)"/>
<path d="M0 0 C4.51478398 0.53115106 7.34666857 2.36620292 11 5 C9.234375 5.6484375 9.234375 5.6484375 7 6 C5.078125 5.0390625 5.078125 5.0390625 3.25 3.625 C2.63640625 3.16351563 2.0228125 2.70203125 1.390625 2.2265625 C0.93171875 1.82179688 0.4728125 1.41703125 0 1 C0 0.67 0 0.34 0 0 Z " fill="#B88132" transform="translate(157,329)"/>
<path d="M0 0 C3 2 3 2 3.8125 4.9375 C4 8 4 8 2 11 C0.80712589 7.12315913 0 4.08378077 0 0 Z " fill="#D9A633" transform="translate(196,160)"/>
<path d="M0 0 C3.3 0 6.6 0 10 0 C9.01 1.485 9.01 1.485 8 3 C5.03 2.67 2.06 2.34 -1 2 C-0.67 1.34 -0.34 0.68 0 0 Z " fill="#AB6F24" transform="translate(48,147)"/>
<path d="M0 0 C0.33 0 0.66 0 1 0 C1.12375 0.804375 1.2475 1.60875 1.375 2.4375 C1.58125 3.283125 1.7875 4.12875 2 5 C2.66 5.33 3.32 5.66 4 6 C3.625 7.9375 3.625 7.9375 3 10 C2.01 10.495 2.01 10.495 1 11 C-0.17571451 7.32589215 -0.07366746 3.83070817 0 0 Z " fill="#A56E29" transform="translate(127,256)"/>
<path d="M0 0 C3.98175544 2.10148204 6.35039045 4.36905358 9 8 C5.12793601 7.42636089 2.81534937 5.65894107 0 3 C0 2.01 0 1.02 0 0 Z " fill="#CF9E48" transform="translate(61,246)"/>
<path d="M0 0 C1.0326802 2.78823655 1.04509293 3.8677274 0.0625 6.75 C-0.288125 7.4925 -0.63875 8.235 -1 9 C-1.66 9 -2.32 9 -3 9 C-3.33 9.66 -3.66 10.32 -4 11 C-3.39301257 6.87248551 -1.96189209 3.6678852 0 0 Z " fill="#F8E272" transform="translate(157,94)"/>
<path d="M0 0 C0.33 0.99 0.66 1.98 1 3 C-1.375 4.5625 -1.375 4.5625 -4 6 C-4.66 5.67 -5.32 5.34 -6 5 C-3.375 1.125 -3.375 1.125 0 0 Z " fill="#EBC764" transform="translate(227,260)"/>
<path d="M0 0 C0.33 2.31 0.66 4.62 1 7 C-1.5 5.6875 -1.5 5.6875 -4 4 C-4 3.01 -4 2.02 -4 1 C-1 0 -1 0 0 0 Z " fill="#F9F2DE" transform="translate(208,206)"/>
<path d="M0 0 C3.375 -0.125 3.375 -0.125 7 0 C7.66 0.66 8.32 1.32 9 2 C5.85179059 3.04940314 5.00659136 3.066855 2 2 C1.34 1.34 0.68 0.68 0 0 Z " fill="#E3BC5A" transform="translate(128,6)"/>
<path d="M0 0 C1.98 0.99 1.98 0.99 4 2 C3.01 2.33 2.02 2.66 1 3 C0.67 2.01 0.34 1.02 0 0 Z " fill="#C5A158" transform="translate(171,339)"/>
<path d="M0 0 C0.99 0.495 0.99 0.495 2 1 C1.67 1.99 1.34 2.98 1 4 C0.67 2.68 0.34 1.36 0 0 Z " fill="#AE7E3B" transform="translate(282,86)"/>
<path d="M0 0 C0.99 0 1.98 0 3 0 C2.67 0.66 2.34 1.32 2 2 C1.34 1.34 0.68 0.68 0 0 Z " fill="#CCAD62" transform="translate(198,342)"/>
<path d="M0 0 C0.99 0 1.98 0 3 0 C2.67 0.66 2.34 1.32 2 2 C1.34 1.34 0.68 0.68 0 0 Z " fill="#E8D5A5" transform="translate(97,274)"/>
<path d="M0 0 C0.99 1.485 0.99 1.485 2 3 C1.34 3 0.68 3 0 3 C0 2.01 0 1.02 0 0 Z " fill="#D3AC5C" transform="translate(54,243)"/>
<path d="M0 0 C1 4 1 4 1 4 Z " fill="#A36E2C" transform="translate(13,127)"/>
<path d="M0 0 C0.99 0 1.98 0 3 0 C2.67 0.66 2.34 1.32 2 2 C1.34 1.34 0.68 0.68 0 0 Z " fill="#A4702E" transform="translate(18,94)"/>
<path d="" fill="#B2843F" transform="translate(0,0)"/>
<path d="M0 0 C2 1 2 1 2 1 Z " fill="#C8A765" transform="translate(193,349)"/>
<path d="" fill="#BB8E47" transform="translate(0,0)"/>
<path d="" fill="#BD924F" transform="translate(0,0)"/>
<path d="" fill="#D4B580" transform="translate(0,0)"/>
<path d="M0 0 C2 1 2 1 2 1 Z " fill="#DCB765" transform="translate(197,277)"/>
<path d="" fill="#C09346" transform="translate(0,0)"/>
<path d="" fill="#B6833D" transform="translate(0,0)"/>
<path d="M0 0 C2 1 2 1 2 1 Z " fill="#B07F3A" transform="translate(19,190)"/>
<path d="" fill="#AD7C38" transform="translate(0,0)"/>
<path d="" fill="#AA7431" transform="translate(0,0)"/>
<path d="M0 0 C2 1 2 1 2 1 Z " fill="#A67230" transform="translate(9,152)"/>
<path d="" fill="#AE7E3D" transform="translate(0,0)"/>
<path d="" fill="#A67433" transform="translate(0,0)"/>
<path d="M0 0 C2 1 2 1 2 1 Z " fill="#B4833A" transform="translate(58,38)"/>
<path d="M0 0 C2 1 2 1 2 1 Z " fill="#CFA754" transform="translate(229,26)"/>
<path d="" fill="#C89F4F" transform="translate(0,0)"/>
<path d="M0 0 C2 1 2 1 2 1 Z " fill="#CBA152" transform="translate(97,14)"/>
<path d="M0 0 C2 1 2 1 2 1 Z " fill="#DEBD68" transform="translate(197,10)"/>
<path d="" fill="#BDA673" transform="translate(0,0)"/>
<path d="" fill="#C8A865" transform="translate(0,0)"/>
<path d="" fill="#C9A862" transform="translate(0,0)"/>
<path d="" fill="#AD9C79" transform="translate(0,0)"/>
<path d="" fill="#C4A058" transform="translate(0,0)"/>
<path d="" fill="#C1A771" transform="translate(0,0)"/>
<path d="" fill="#C39B56" transform="translate(0,0)"/>
<path d="" fill="#BD9852" transform="translate(0,0)"/>
<path d="" fill="#C4A96F" transform="translate(0,0)"/>
<path d="" fill="#B8A378" transform="translate(0,0)"/>
<path d="" fill="#CDA85E" transform="translate(0,0)"/>
<path d="" fill="#BD9149" transform="translate(0,0)"/>
<path d="" fill="#BC8F46" transform="translate(0,0)"/>
<path d="" fill="#C7A96E" transform="translate(0,0)"/>
<path d="" fill="#BB9046" transform="translate(0,0)"/>
<path d="" fill="#CAAC6E" transform="translate(0,0)"/>
<path d="" fill="#BA8E46" transform="translate(0,0)"/>
<path d="" fill="#CB9D4B" transform="translate(0,0)"/>
<path d="" fill="#B78D48" transform="translate(0,0)"/>
<path d="" fill="#B88D47" transform="translate(0,0)"/>
<path d="" fill="#C89948" transform="translate(0,0)"/>
<path d="" fill="#CDAE6F" transform="translate(0,0)"/>
<path d="" fill="#BD8D4A" transform="translate(0,0)"/>
<path d="" fill="#C59944" transform="translate(0,0)"/>
<path d="" fill="#BE9351" transform="translate(0,0)"/>
<path d="" fill="#BD944E" transform="translate(0,0)"/>
<path d="" fill="#CFB26E" transform="translate(0,0)"/>
<path d="" fill="#C19342" transform="translate(0,0)"/>
<path d="" fill="#C29143" transform="translate(0,0)"/>
<path d="" fill="#D6B470" transform="translate(0,0)"/>
<path d="" fill="#C8A363" transform="translate(0,0)"/>
<path d="" fill="#D6B770" transform="translate(0,0)"/>
<path d="" fill="#C49647" transform="translate(0,0)"/>
<path d="" fill="#D6BB81" transform="translate(0,0)"/>
<path d="" fill="#C19546" transform="translate(0,0)"/>
<path d="" fill="#DCBC73" transform="translate(0,0)"/>
<path d="" fill="#C99B49" transform="translate(0,0)"/>
<path d="" fill="#CCAC75" transform="translate(0,0)"/>
<path d="" fill="#DCC596" transform="translate(0,0)"/>
<path d="" fill="#DEBF71" transform="translate(0,0)"/>
<path d="" fill="#DDB967" transform="translate(0,0)"/>
<path d="" fill="#E6D7A8" transform="translate(0,0)"/>
<path d="" fill="#E7D5A7" transform="translate(0,0)"/>
<path d="" fill="#E2C377" transform="translate(0,0)"/>
<path d="" fill="#E3C574" transform="translate(0,0)"/>
<path d="" fill="#E4C56F" transform="translate(0,0)"/>
<path d="" fill="#E3C576" transform="translate(0,0)"/>
<path d="" fill="#E3C477" transform="translate(0,0)"/>
<path d="" fill="#E7D5A4" transform="translate(0,0)"/>
<path d="" fill="#E4C576" transform="translate(0,0)"/>
<path d="" fill="#E3C879" transform="translate(0,0)"/>
<path d="" fill="#E4C679" transform="translate(0,0)"/>
<path d="" fill="#E5CE8E" transform="translate(0,0)"/>
<path d="" fill="#E6C974" transform="translate(0,0)"/>
<path d="" fill="#DFC572" transform="translate(0,0)"/>
<path d="" fill="#DEC378" transform="translate(0,0)"/>
<path d="" fill="#E3C773" transform="translate(0,0)"/>
<path d="" fill="#E0C46F" transform="translate(0,0)"/>
<path d="" fill="#DFC278" transform="translate(0,0)"/>
<path d="" fill="#DFC170" transform="translate(0,0)"/>
<path d="" fill="#DBBC6F" transform="translate(0,0)"/>
<path d="" fill="#DBB668" transform="translate(0,0)"/>
<path d="" fill="#D9B564" transform="translate(0,0)"/>
<path d="" fill="#D6B161" transform="translate(0,0)"/>
<path d="" fill="#D5AE5F" transform="translate(0,0)"/>
<path d="" fill="#D1A85B" transform="translate(0,0)"/>
<path d="" fill="#D2A757" transform="translate(0,0)"/>
<path d="" fill="#D1AB5A" transform="translate(0,0)"/>
<path d="" fill="#D0A95A" transform="translate(0,0)"/>
<path d="" fill="#CFA759" transform="translate(0,0)"/>
<path d="" fill="#CDA656" transform="translate(0,0)"/>
<path d="" fill="#C99F51" transform="translate(0,0)"/>
<path d="" fill="#CBA154" transform="translate(0,0)"/>
<path d="" fill="#C99E50" transform="translate(0,0)"/>
<path d="" fill="#C79C50" transform="translate(0,0)"/>
<path d="" fill="#BF9449" transform="translate(0,0)"/>
<path d="" fill="#C79A4D" transform="translate(0,0)"/>
<path d="" fill="#C4994C" transform="translate(0,0)"/>
<path d="" fill="#BA8E46" transform="translate(0,0)"/>
<path d="" fill="#BD8E45" transform="translate(0,0)"/>
<path d="" fill="#C4954B" transform="translate(0,0)"/>
<path d="" fill="#B88942" transform="translate(0,0)"/>
<path d="" fill="#BF9448" transform="translate(0,0)"/>
<path d="" fill="#B8893D" transform="translate(0,0)"/>
<path d="" fill="#C19346" transform="translate(0,0)"/>
<path d="" fill="#B88A44" transform="translate(0,0)"/>
<path d="" fill="#C29246" transform="translate(0,0)"/>
<path d="" fill="#C08F45" transform="translate(0,0)"/>
<path d="" fill="#B88641" transform="translate(0,0)"/>
<path d="" fill="#BB8C42" transform="translate(0,0)"/>
<path d="" fill="#B5843E" transform="translate(0,0)"/>
<path d="" fill="#BD8D43" transform="translate(0,0)"/>
<path d="" fill="#B98840" transform="translate(0,0)"/>
<path d="" fill="#B3843E" transform="translate(0,0)"/>
<path d="" fill="#B98841" transform="translate(0,0)"/>
<path d="" fill="#B1833F" transform="translate(0,0)"/>
<path d="" fill="#B27F3D" transform="translate(0,0)"/>
<path d="" fill="#B17F3C" transform="translate(0,0)"/>
<path d="" fill="#AE7F38" transform="translate(0,0)"/>
<path d="" fill="#B07D38" transform="translate(0,0)"/>
<path d="" fill="#B18540" transform="translate(0,0)"/>
<path d="" fill="#B17F3B" transform="translate(0,0)"/>
<path d="" fill="#B1813C" transform="translate(0,0)"/>
<path d="" fill="#B07E3B" transform="translate(0,0)"/>
<path d="" fill="#AA7431" transform="translate(0,0)"/>
<path d="" fill="#A77231" transform="translate(0,0)"/>
<path d="" fill="#A77531" transform="translate(0,0)"/>
<path d="" fill="#A57230" transform="translate(0,0)"/>
<path d="" fill="#A46F2E" transform="translate(0,0)"/>
<path d="" fill="#AE7D3C" transform="translate(0,0)"/>
<path d="" fill="#AE7F39" transform="translate(0,0)"/>
<path d="" fill="#B0803B" transform="translate(0,0)"/>
<path d="" fill="#A46D2D" transform="translate(0,0)"/>
<path d="" fill="#A16F2F" transform="translate(0,0)"/>
<path d="" fill="#A47031" transform="translate(0,0)"/>
<path d="" fill="#A76F2E" transform="translate(0,0)"/>
<path d="" fill="#A46F2F" transform="translate(0,0)"/>
<path d="" fill="#A3702D" transform="translate(0,0)"/>
<path d="" fill="#AF803D" transform="translate(0,0)"/>
<path d="" fill="#B0813C" transform="translate(0,0)"/>
<path d="" fill="#A8702D" transform="translate(0,0)"/>
<path d="" fill="#A57230" transform="translate(0,0)"/>
<path d="" fill="#B08340" transform="translate(0,0)"/>
<path d="" fill="#B0823D" transform="translate(0,0)"/>
<path d="" fill="#B1813D" transform="translate(0,0)"/>
<path d="" fill="#B1813E" transform="translate(0,0)"/>
<path d="" fill="#A77531" transform="translate(0,0)"/>
<path d="" fill="#BA9045" transform="translate(0,0)"/>
<path d="" fill="#BA8E49" transform="translate(0,0)"/>
<path d="" fill="#AF7E36" transform="translate(0,0)"/>
<path d="" fill="#B8893D" transform="translate(0,0)"/>
<path d="" fill="#C9A151" transform="translate(0,0)"/>
<path d="" fill="#D1AE59" transform="translate(0,0)"/>
<path d="" fill="#CFAA56" transform="translate(0,0)"/>
<path d="" fill="#C8A357" transform="translate(0,0)"/>
<path d="" fill="#C19649" transform="translate(0,0)"/>
<path d="" fill="#D6B260" transform="translate(0,0)"/>
<path d="" fill="#DAB75F" transform="translate(0,0)"/>
<path d="" fill="#CA9F4D" transform="translate(0,0)"/>
<path d="" fill="#D4B15D" transform="translate(0,0)"/>
<path d="" fill="#CCA350" transform="translate(0,0)"/>
<path d="" fill="#C9A050" transform="translate(0,0)"/>
<path d="" fill="#D2B064" transform="translate(0,0)"/>
<path d="" fill="#DEBE68" transform="translate(0,0)"/>
<path d="" fill="#DFC26C" transform="translate(0,0)"/>
<path d="" fill="#E1C06B" transform="translate(0,0)"/>
<path d="" fill="#E0C26A" transform="translate(0,0)"/>
<path d="" fill="#C7A156" transform="translate(0,0)"/>
<path d="" fill="#E0C169" transform="translate(0,0)"/>
<path d="" fill="#E2C56D" transform="translate(0,0)"/>
<path d="" fill="#E5C66D" transform="translate(0,0)"/>
<path d="" fill="#E4C46D" transform="translate(0,0)"/>
<path d="" fill="#DBB55F" transform="translate(0,0)"/>
<path d="" fill="#D2AD59" transform="translate(0,0)"/>
<path d="" fill="#CFB16A" transform="translate(0,0)"/>
<path d="" fill="#E7CA75" transform="translate(0,0)"/>
<path d="" fill="#E2C36E" transform="translate(0,0)"/>
<path d="" fill="#E4C56F" transform="translate(0,0)"/>
</svg>
